<svg xmlns="http://www.w3.org/2000/svg"
     width="89.959"
     height="89.973"
     viewBox="0 0 89.959 89.973">
  <g transform="translate(0)">
    <path d="M85.346,89.973H4.627A4.623,4.623,0,0,1,0,85.346V4.627A4.623,4.623,0,0,1,4.627,0H85.333a4.623,4.623,0,0,1,4.627,4.627V85.333A4.605,4.605,0,0,1,85.346,89.973Z"
          transform="translate(0)"
          fill="#62579e" />
  </g>
  <g transform="translate(13.063 13.063)">
    <g transform="translate(0 34.128)">
      <path d="M96,375.7v-6.327l18.139-8.124L96,353.127V346.8l26.548,12.424v4.069Z"
            transform="translate(-96 -346.8)"
            fill="#fff" />
    </g>
    <g transform="translate(36.332 0.463)">
      <path d="M390.514,128.33,363,115.892v-4.069L390.514,99.4v6.341l-18.806,8.124,18.806,8.124Z"
            transform="translate(-363 -99.4)"
            fill="#fff" />
    </g>
    <g>
      <path d="M96,96h7.1v12.328h16.792V96H127v29.855h-7.1v-12.41H103.1v12.41H96Z"
            transform="translate(-96 -96)"
            fill="#fff" />
    </g>
    <g transform="translate(31.801 33.325)">
      <path d="M335.987,370.02a10.551,10.551,0,0,1-6.287-9.933v-7.852a10.519,10.519,0,0,1,6.314-9.934,16.333,16.333,0,0,1,6.967-1.4h5.674a16.37,16.37,0,0,1,6.695,1.279,10.4,10.4,0,0,1,4.49,3.62,9.428,9.428,0,0,1,1.592,5.416h-6.9a4.7,4.7,0,0,0-1.619-3.715,6.279,6.279,0,0,0-4.259-1.4h-5.674a6.047,6.047,0,0,0-4.558,1.769,6.383,6.383,0,0,0-1.728,4.627v7.334a6.422,6.422,0,0,0,1.7,4.627,5.913,5.913,0,0,0,4.49,1.769h5.987a6.061,6.061,0,0,0,4.286-1.579,5.131,5.131,0,0,0,1.7-3.919v-.939h-9.838v-5.13h16.737v6.055a9.769,9.769,0,0,1-1.619,5.538,10.853,10.853,0,0,1-4.559,3.8,15.694,15.694,0,0,1-6.695,1.361H342.9A15.8,15.8,0,0,1,335.987,370.02Z"
            transform="translate(-329.7 -340.9)"
            fill="#fff" />
    </g>
  </g>
</svg>
